{
  "accessors": [
    {
      "name": "fangzi4_2_1_0_positions",
      "componentType": 5126,
      "count": 1770,
      "min": [
        -79.96630096435547,
        -71.74839782714844,
        -156.158203125
      ],
      "max": [
        236.4906005859375,
        65.33000183105469,
        -119.27790069580078
      ],
      "type": "VEC3",
      "bufferView": 0,
      "byteOffset": 0
    },
    {
      "name": "fangzi4_2_1_0_normals",
      "componentType": 5126,
      "count": 1770,
      "min": [
        -1,
        -1,
        -1
      ],
      "max": [
        1,
        1,
        1
      ],
      "type": "VEC3",
      "bufferView": 1,
      "byteOffset": 0
    },
    {
      "name": "fangzi4_2_1_0_texcoords",
      "componentType": 5126,
      "count": 1770,
      "min": [
        0.009999999776482582,
        0.009999999776482582
      ],
      "max": [
        0.7922000288963318,
        0.9900000095367432
      ],
      "type": "VEC2",
      "bufferView": 2,
      "byteOffset": 0
    },
    {
      "name": "fangzi4_2_1_0_indices",
      "componentType": 5123,
      "count": 2916,
      "min": [
        0
      ],
      "max": [
        1769
      ],
      "type": "SCALAR",
      "bufferView": 3,
      "byteOffset": 0
    },
    {
      "name": "fangzi4_4_1_0_positions",
      "componentType": 5126,
      "count": 24,
      "min": [
        -243.07530212402344,
        84.66960144042969,
        -19.21969985961914
      ],
      "max": [
        -156.25289916992188,
        114.66960144042969,
        112.24649810791016
      ],
      "type": "VEC3",
      "bufferView": 0,
      "byteOffset": 21240
    },
    {
      "name": "fangzi4_4_1_0_normals",
      "componentType": 5126,
      "count": 24,
      "min": [
        -1,
        -1,
        -1
      ],
      "max": [
        1,
        1,
        1
      ],
      "type": "VEC3",
      "bufferView": 1,
      "byteOffset": 21240
    },
    {
      "name": "fangzi4_4_1_0_texcoords",
      "componentType": 5126,
      "count": 24,
      "min": [
        0.009999999776482582,
        0.009999999776482582
      ],
      "max": [
        0.8855000138282776,
        0.9900000095367432
      ],
      "type": "VEC2",
      "bufferView": 2,
      "byteOffset": 14160
    },
    {
      "name": "fangzi4_4_1_0_indices",
      "componentType": 5123,
      "count": 36,
      "min": [
        0
      ],
      "max": [
        23
      ],
      "type": "SCALAR",
      "bufferView": 3,
      "byteOffset": 5832
    },
    {
      "name": "fangzi4_3_1_0_positions",
      "componentType": 5126,
      "count": 240,
      "min": [
        -237.6844940185547,
        -114.66960144042969,
        -123.34719848632812
      ],
      "max": [
        235.15609741210938,
        65.33039855957031,
        100.71949768066406
      ],
      "type": "VEC3",
      "bufferView": 0,
      "byteOffset": 21528
    },
    {
      "name": "fangzi4_3_1_0_normals",
      "componentType": 5126,
      "count": 240,
      "min": [
        -1,
        -1,
        -1
      ],
      "max": [
        1,
        1,
        1
      ],
      "type": "VEC3",
      "bufferView": 1,
      "byteOffset": 21528
    },
    {
      "name": "fangzi4_3_1_0_texcoords",
      "componentType": 5126,
      "count": 240,
      "min": [
        0.009999999776482582,
        0.02239999920129776
      ],
      "max": [
        0.9900000095367432,
        0.9900000095367432
      ],
      "type": "VEC2",
      "bufferView": 2,
      "byteOffset": 14352
    },
    {
      "name": "fangzi4_3_1_0_indices",
      "componentType": 5123,
      "count": 492,
      "min": [
        0
      ],
      "max": [
        239
      ],
      "type": "SCALAR",
      "bufferView": 3,
      "byteOffset": 5904
    },
    {
      "name": "fangzi4_1_1_0_positions",
      "componentType": 5126,
      "count": 318,
      "min": [
        -250.00010681152344,
        -114.66929626464844,
        -161.22030639648438
      ],
      "max": [
        250.00010681152344,
        95.33070373535156,
        161.22030639648438
      ],
      "type": "VEC3",
      "bufferView": 0,
      "byteOffset": 24408
    },
    {
      "name": "fangzi4_1_1_0_normals",
      "componentType": 5126,
      "count": 318,
      "min": [
        -1,
        -1,
        -1
      ],
      "max": [
        1,
        1,
        1
      ],
      "type": "VEC3",
      "bufferView": 1,
      "byteOffset": 24408
    },
    {
      "name": "fangzi4_1_1_0_texcoords",
      "componentType": 5126,
      "count": 318,
      "min": [
        0.009999999776482582,
        0.009999999776482582
      ],
      "max": [
        0.8116000294685364,
        0.9900000095367432
      ],
      "type": "VEC2",
      "bufferView": 2,
      "byteOffset": 16272
    },
    {
      "name": "fangzi4_1_1_0_indices",
      "componentType": 5123,
      "count": 588,
      "min": [
        0
      ],
      "max": [
        317
      ],
      "type": "SCALAR",
      "bufferView": 3,
      "byteOffset": 6888
    }
  ],
  "asset": {
    "generator": "obj2gltf",
    "version": "2.0"
  },
  "buffers": [
    {
      "name": "dalou",
      "byteLength": 334040,
      "uri": "data:application/octet-stream;base64,"
    }
  ],
  "bufferViews": [
    {
      "name": "bufferView_0",
      "buffer": 0,
      "byteLength": 28224,
      "byteOffset": 0,
      "byteStride": 12,
      "target": 34962
    },
    {
      "name": "bufferView_1",
      "buffer": 0,
      "byteLength": 28224,
      "byteOffset": 28224,
      "byteStride": 12,
      "target": 34962
    },
    {
      "name": "bufferView_2",
      "buffer": 0,
      "byteLength": 18816,
      "byteOffset": 56448,
      "byteStride": 8,
      "target": 34962
    },
    {
      "name": "bufferView_3",
      "buffer": 0,
      "byteLength": 8064,
      "byteOffset": 75264,
      "target": 34963
    },
    {
      "buffer": 0,
      "byteOffset": 83328,
      "byteLength": 65997
    },
    {
      "buffer": 0,
      "byteOffset": 149325,
      "byteLength": 24967
    },
    {
      "buffer": 0,
      "byteOffset": 174292,
      "byteLength": 68118
    },
    {
      "buffer": 0,
      "byteOffset": 242410,
      "byteLength": 91627
    }
  ],
  "images": [
    {
      "name": "fangzi4-2",
      "mimeType": "image/jpeg",
      "bufferView": 4
    },
    {
      "name": "fangzi4-4",
      "mimeType": "image/jpeg",
      "bufferView": 5
    },
    {
      "name": "fangzi4-3",
      "mimeType": "image/jpeg",
      "bufferView": 6
    },
    {
      "name": "fangzi4-1",
      "mimeType": "image/jpeg",
      "bufferView": 7
    }
  ],
  "materials": [
    {
      "name": "Material__2596",
      "pbrMetallicRoughness": {
        "baseColorTexture": {
          "index": 0
        },
        "baseColorFactor": [
          1,
          1,
          1,
          1
        ],
        "metallicFactor": 0,
        "roughnessFactor": 0.99
      },
      "emissiveFactor": [
        0,
        0,
        0
      ],
      "alphaMode": "OPAQUE",
      "doubleSided": false
    },
    {
      "name": "Material__2569",
      "pbrMetallicRoughness": {
        "baseColorTexture": {
          "index": 1
        },
        "baseColorFactor": [
          1,
          1,
          1,
          1
        ],
        "metallicFactor": 0,
        "roughnessFactor": 0.99
      },
      "emissiveFactor": [
        0,
        0,
        0
      ],
      "alphaMode": "OPAQUE",
      "doubleSided": false
    },
    {
      "name": "Material__2593",
      "pbrMetallicRoughness": {
        "baseColorTexture": {
          "index": 2
        },
        "baseColorFactor": [
          1,
          1,
          1,
          1
        ],
        "metallicFactor": 0,
        "roughnessFactor": 0.99
      },
      "emissiveFactor": [
        0,
        0,
        0
      ],
      "alphaMode": "OPAQUE",
      "doubleSided": false
    },
    {
      "name": "Material__2590",
      "pbrMetallicRoughness": {
        "baseColorTexture": {
          "index": 3
        },
        "baseColorFactor": [
          1,
          1,
          1,
          1
        ],
        "metallicFactor": 0,
        "roughnessFactor": 0.99
      },
      "emissiveFactor": [
        0,
        0,
        0
      ],
      "alphaMode": "OPAQUE",
      "doubleSided": false
    }
  ],
  "meshes": [
    {
      "name": "fangzi4_2_1",
      "primitives": [
        {
          "attributes": {
            "POSITION": 0,
            "NORMAL": 1,
            "TEXCOORD_0": 2
          },
          "indices": 3,
          "material": 0,
          "mode": 4
        }
      ]
    },
    {
      "name": "fangzi4_4_1",
      "primitives": [
        {
          "attributes": {
            "POSITION": 4,
            "NORMAL": 5,
            "TEXCOORD_0": 6
          },
          "indices": 7,
          "material": 1,
          "mode": 4
        }
      ]
    },
    {
      "name": "fangzi4_3_1",
      "primitives": [
        {
          "attributes": {
            "POSITION": 8,
            "NORMAL": 9,
            "TEXCOORD_0": 10
          },
          "indices": 11,
          "material": 2,
          "mode": 4
        }
      ]
    },
    {
      "name": "fangzi4_1_1",
      "primitives": [
        {
          "attributes": {
            "POSITION": 12,
            "NORMAL": 13,
            "TEXCOORD_0": 14
          },
          "indices": 15,
          "material": 3,
          "mode": 4
        }
      ]
    }
  ],
  "nodes": [
    {
      "name": "fangzi4_2",
      "mesh": 0
    },
    {
      "name": "fangzi4_4",
      "mesh": 1
    },
    {
      "name": "fangzi4_3",
      "mesh": 2
    },
    {
      "name": "fangzi4_1",
      "mesh": 3
    }
  ],
  "samplers": [
    {
      "magFilter": 9729,
      "minFilter": 9986,
      "wrapS": 10497,
      "wrapT": 10497
    }
  ],
  "scene": 0,
  "scenes": [
    {
      "nodes": [
        0,
        1,
        2,
        3
      ]
    }
  ],
  "textures": [
    {
      "name": "fangzi4-2",
      "sampler": 0,
      "source": 0
    },
    {
      "name": "fangzi4-4",
      "sampler": 0,
      "source": 1
    },
    {
      "name": "fangzi4-3",
      "sampler": 0,
      "source": 2
    },
    {
      "name": "fangzi4-1",
      "sampler": 0,
      "source": 3
    }
  ]
}
